<?xml version="1.0" standalone="no"?><!-- Generator: Gravit.io --><svg xmlns="http://www.w3.org/2000/svg" xmlns:xlink="http://www.w3.org/1999/xlink" style="isolation:isolate" id="svg" width="170" height="40"><g shape="[GCompoundPath]"><path d="M 32.1 16.130000000000003 L 32.1 18.650000000000002 L 26.790000000000003 18.650000000000002 Q 25.92 18.650000000000002 25.290000000000003 18.980000000000004 Q 24.660000000000004 19.310000000000002 24.660000000000004 19.910000000000004 Q 24.660000000000004 20.270000000000003 24.810000000000002 20.555 Q 24.96 20.840000000000003 25.155 21.020000000000003 Q 25.35 21.200000000000003 25.755000000000003 21.395000000000003 Q 26.160000000000004 21.590000000000003 26.385 21.665 Q 26.610000000000003 21.740000000000002 28.290000000000003 22.28 Q 29.970000000000002 22.82 30.78 23.18 Q 31.590000000000003 23.540000000000003 32.025000000000006 24.155 Q 32.46 24.770000000000003 32.58 25.355 Q 32.7 25.94 32.7 26.51 Q 32.7 30.53 27.180000000000003 30.53 L 21.990000000000002 30.53 L 21.990000000000002 28.01 L 27.180000000000003 28.01 Q 30 28.01 30 26.51 Q 30 25.79 29.175000000000004 25.310000000000002 Q 28.35 24.830000000000002 27.165000000000003 24.5 Q 25.980000000000004 24.17 24.795 23.735 Q 23.610000000000003 23.3 22.785000000000004 22.325000000000003 Q 21.96 21.35 21.96 19.910000000000004 Q 21.96 18.080000000000002 23.370000000000005 17.105000000000004 Q 24.78 16.130000000000003 26.790000000000003 16.130000000000003 L 32.1 16.130000000000003 Z M 40.6 30.53 L 37.96 30.53 L 37.96 18.650000000000002 L 35.5 18.650000000000002 L 36.7 16.130000000000003 L 40.6 16.130000000000003 L 40.6 30.53 Z M 37.84 13.130000000000003 Q 37.45 12.620000000000001 37.45 12.020000000000003 Q 37.45 11.420000000000002 37.84 10.925 Q 38.230000000000004 10.430000000000003 39.040000000000006 10.430000000000003 Q 39.85 10.430000000000003 40.24 10.925 Q 40.63 11.420000000000002 40.63 12.020000000000003 Q 40.63 12.620000000000001 40.24 13.115000000000002 Q 39.85 13.610000000000003 39.040000000000006 13.610000000000003 Q 38.230000000000004 13.610000000000003 37.84 13.130000000000003 Z M 53.9 16.130000000000003 L 56.81 16.130000000000003 L 53.18 22.400000000000002 Q 56.87 23.39 56.87 28.37 L 56.87 30.53 L 54.230000000000004 30.53 L 54.230000000000004 28.34 Q 54.230000000000004 26.330000000000002 53.045 25.235 Q 51.86 24.14 49.67 24.14 Q 48.980000000000004 24.14 48.26 24.23 L 48.26 30.53 L 45.62 30.53 L 45.62 9.530000000000001 L 48.26 9.530000000000001 L 48.26 21.86 Q 49.52 21.68 50.78 21.86 L 53.9 16.130000000000003 Z M 69.03 22.07 L 69.03 24.770000000000003 Q 67.89 23.900000000000002 66.24 23.900000000000002 Q 64.83 23.900000000000002 64.05 24.455000000000002 Q 63.269999999999996 25.01 63.269999999999996 26.03 Q 63.269999999999996 28.01 66.21000000000001 28.01 L 70.17 28.01 L 70.17 22.28 Q 70.17 18.650000000000002 66.63 18.650000000000002 L 61.83 18.650000000000002 L 61.83 16.130000000000003 L 66.78 16.130000000000003 Q 69.69 16.130000000000003 71.25 17.57 Q 72.81 19.01 72.81 21.71 L 72.81 30.53 L 66.12 30.53 Q 63.57 30.53 62.07 29.39 Q 60.57 28.25 60.57 26.060000000000002 Q 60.57 23.87 62.16 22.73 Q 63.75 21.590000000000003 66.15 21.590000000000003 Q 67.5 21.590000000000003 69.03 22.07 Z M 77.11 37.37 L 77.11 23.330000000000002 Q 77.11 21.770000000000003 77.68 20.39 Q 78.25 19.01 79.24 18.005000000000003 Q 80.23 17 81.58 16.415 Q 82.93 15.830000000000002 84.46000000000001 15.830000000000002 Q 85.99 15.830000000000002 87.325 16.415 Q 88.66 17 89.665 18.020000000000003 Q 90.67 19.04 91.24 20.405 Q 91.81 21.770000000000003 91.81 23.330000000000002 Q 91.81 24.89 91.25500000000001 26.255000000000003 Q 90.7 27.62 89.71 28.64 Q 88.72 29.66 87.37 30.245 Q 86.02 30.830000000000002 84.46000000000001 30.830000000000002 Q 82.54 30.830000000000002 80.89 29.93 L 80.89 27.23 Q 82.36 28.310000000000002 84.37 28.310000000000002 Q 85.45 28.310000000000002 86.33500000000001 27.935000000000002 Q 87.22 27.560000000000002 87.83500000000001 26.900000000000002 Q 88.45 26.240000000000002 88.78 25.325000000000003 Q 89.11 24.41 89.11 23.330000000000002 Q 89.11 22.25 88.78 21.335 Q 88.45 20.42 87.85000000000001 19.76 Q 87.25 19.1 86.395 18.725 Q 85.54 18.35 84.46000000000001 18.35 Q 83.41 18.35 82.555 18.71 Q 81.7 19.07 81.08500000000001 19.730000000000004 Q 80.47 20.39 80.14 21.305 Q 79.81 22.22 79.81 23.330000000000002 L 79.81 37.37 L 77.11 37.37 Z M 99.86 30.53 L 97.22 30.53 L 97.22 18.650000000000002 L 94.75999999999999 18.650000000000002 L 95.96 16.130000000000003 L 99.86 16.130000000000003 L 99.86 30.53 Z M 97.1 13.130000000000003 Q 96.71 12.620000000000001 96.71 12.020000000000003 Q 96.71 11.420000000000002 97.1 10.925 Q 97.49 10.430000000000003 98.3 10.430000000000003 Q 99.11 10.430000000000003 99.5 10.925 Q 99.89 11.420000000000002 99.89 12.020000000000003 Q 99.89 12.620000000000001 99.5 13.115000000000002 Q 99.11 13.610000000000003 98.3 13.610000000000003 Q 97.49 13.610000000000003 97.1 13.130000000000003 Z M 103.38 18.650000000000002 L 108.75 13.280000000000001 L 108.75 16.130000000000003 L 112.8 16.130000000000003 L 112.8 18.650000000000002 L 108.75 18.650000000000002 L 108.75 24.830000000000002 Q 108.75 25.880000000000003 109.095 26.57 Q 109.44 27.26 110.1 27.545 Q 110.76 27.830000000000002 111.345 27.92 Q 111.92999999999999 28.01 112.8 28.01 L 112.8 30.53 Q 109.35 30.53 107.7 29.21 Q 106.05 27.89 106.05 24.830000000000002 L 106.05 18.650000000000002 L 103.38 18.650000000000002 Z M 123.69999999999999 15.830000000000002 Q 128.8 16.04 128.8 20.060000000000002 Q 128.8 25.07 122.22999999999999 25.07 L 121 25.07 L 121 22.76 L 122.44 22.76 Q 124.44999999999999 22.76 125.22999999999999 22.145000000000003 Q 126.00999999999999 21.53 126.00999999999999 20.090000000000003 Q 126.00999999999999 19.160000000000004 125.32 18.695 Q 124.63 18.230000000000004 123.55 18.230000000000004 Q 121.41999999999999 18.230000000000004 120.205 19.730000000000004 Q 118.99 21.230000000000004 118.99 23.330000000000002 Q 118.99 25.55 120.29499999999999 26.93 Q 121.6 28.310000000000002 123.69999999999999 28.310000000000002 Q 125.58999999999999 28.310000000000002 126.78999999999999 27.380000000000003 L 128.58999999999997 29.150000000000002 Q 126.52 30.830000000000002 123.69999999999999 30.830000000000002 Q 120.27999999999999 30.830000000000002 118.24 28.82 Q 116.19999999999999 26.810000000000002 116.19999999999999 23.630000000000003 Q 116.19999999999999 20.090000000000003 118.21 17.900000000000002 Q 120.22 15.71 123.69999999999999 15.830000000000002 Z M 132.95 16.130000000000003 L 138.14 16.130000000000003 Q 141.46999999999997 16.130000000000003 142.90999999999997 17.12 Q 144.2 17.990000000000002 144.54499999999996 19.205000000000002 Q 144.89 20.42 144.89 22.400000000000002 L 144.89 30.53 L 142.25 30.53 L 142.25 22.43 Q 142.25 21.89 142.21999999999997 21.515 Q 142.19 21.14 142.01 20.555 Q 141.82999999999998 19.970000000000002 141.5 19.595000000000002 Q 141.16999999999996 19.220000000000002 140.53999999999996 18.935000000000002 Q 139.90999999999997 18.650000000000002 139.01 18.650000000000002 L 135.58999999999997 18.650000000000002 L 135.58999999999997 30.53 L 132.95 30.53 L 132.95 16.130000000000003 Z" style="stroke:none;fill:#000000;stroke-miterlimit:10;fill-rule:evenodd;"/></g></svg>