<?xml version="1.0" standalone="no"?><!-- Generator: Gravit.io --><svg xmlns="http://www.w3.org/2000/svg" xmlns:xlink="http://www.w3.org/1999/xlink" style="isolation:isolate" id="svg" width="800" height="300"><g shape="[GCompoundPath]"><path d="M 78.60000000000001 102.1137451171875 L 78.60000000000001 118.9137451171875 L 43.2 118.9137451171875 Q 37.4 118.9137451171875 33.2 121.1137451171875 Q 29 123.31374511718751 29 127.31374511718751 Q 29 129.7137451171875 30 131.6137451171875 Q 31 133.5137451171875 32.300000000000004 134.7137451171875 Q 33.6 135.9137451171875 36.300000000000004 137.2137451171875 Q 39 138.5137451171875 40.5 139.0137451171875 Q 42 139.5137451171875 53.2 143.1137451171875 Q 64.4 146.7137451171875 69.8 149.1137451171875 Q 75.2 151.5137451171875 78.10000000000001 155.6137451171875 Q 81 159.7137451171875 81.80000000000001 163.6137451171875 Q 82.60000000000001 167.5137451171875 82.60000000000001 171.3137451171875 Q 82.60000000000001 198.1137451171875 45.800000000000004 198.1137451171875 L 11.200000000000001 198.1137451171875 L 11.200000000000001 181.3137451171875 L 45.800000000000004 181.3137451171875 Q 64.60000000000001 181.3137451171875 64.60000000000001 171.3137451171875 Q 64.60000000000001 166.5137451171875 59.1 163.3137451171875 Q 53.6 160.1137451171875 45.7 157.9137451171875 Q 37.800000000000004 155.7137451171875 29.900000000000002 152.8137451171875 Q 22 149.9137451171875 16.5 143.4137451171875 Q 11 136.9137451171875 11 127.31374511718751 Q 11 115.1137451171875 20.400000000000002 108.6137451171875 Q 29.8 102.1137451171875 43.2 102.1137451171875 L 78.60000000000001 102.1137451171875 Z M 129.60000000000002 198.1137451171875 L 112.00000000000001 198.1137451171875 L 112.00000000000001 118.9137451171875 L 95.60000000000001 118.9137451171875 L 103.60000000000001 102.1137451171875 L 129.60000000000002 102.1137451171875 L 129.60000000000002 198.1137451171875 Z M 111.20000000000002 82.1137451171875 Q 108.60000000000001 78.7137451171875 108.60000000000001 74.7137451171875 Q 108.60000000000001 70.7137451171875 111.20000000000002 67.41374511718749 Q 113.80000000000001 64.1137451171875 119.20000000000002 64.1137451171875 Q 124.60000000000001 64.1137451171875 127.20000000000002 67.41374511718749 Q 129.8 70.7137451171875 129.8 74.7137451171875 Q 129.8 78.7137451171875 127.20000000000002 82.0137451171875 Q 124.60000000000001 85.3137451171875 119.20000000000002 85.3137451171875 Q 113.80000000000001 85.3137451171875 111.20000000000002 82.1137451171875 Z M 212.60000000000002 102.1137451171875 L 232 102.1137451171875 L 207.8 143.9137451171875 Q 232.4 150.5137451171875 232.4 183.7137451171875 L 232.4 198.1137451171875 L 214.8 198.1137451171875 L 214.8 183.5137451171875 Q 214.8 170.1137451171875 206.9 162.8137451171875 Q 199 155.5137451171875 184.4 155.5137451171875 Q 179.8 155.5137451171875 175 156.1137451171875 L 175 198.1137451171875 L 157.4 198.1137451171875 L 157.4 58.113745117187506 L 175 58.113745117187506 L 175 140.3137451171875 Q 183.4 139.1137451171875 191.8 140.3137451171875 L 212.60000000000002 102.1137451171875 Z M 307.8 141.7137451171875 L 307.8 159.7137451171875 Q 300.2 153.9137451171875 289.2 153.9137451171875 Q 279.8 153.9137451171875 274.6 157.6137451171875 Q 269.4 161.3137451171875 269.4 168.1137451171875 Q 269.4 181.3137451171875 289 181.3137451171875 L 315.4 181.3137451171875 L 315.4 143.1137451171875 Q 315.4 118.9137451171875 291.8 118.9137451171875 L 259.8 118.9137451171875 L 259.8 102.1137451171875 L 292.8 102.1137451171875 Q 312.2 102.1137451171875 322.6 111.7137451171875 Q 333 121.3137451171875 333 139.3137451171875 L 333 198.1137451171875 L 288.4 198.1137451171875 Q 271.4 198.1137451171875 261.4 190.5137451171875 Q 251.4 182.91374511718752 251.4 168.3137451171875 Q 251.4 153.7137451171875 262 146.1137451171875 Q 272.6 138.5137451171875 288.6 138.5137451171875 Q 297.6 138.5137451171875 307.8 141.7137451171875 Z M 356 243.7137451171875 L 356 150.1137451171875 Q 356 139.7137451171875 359.8 130.5137451171875 Q 363.6 121.3137451171875 370.2 114.6137451171875 Q 376.8 107.9137451171875 385.8 104.0137451171875 Q 394.8 100.1137451171875 405 100.1137451171875 Q 415.2 100.1137451171875 424.1 104.0137451171875 Q 433 107.9137451171875 439.7 114.7137451171875 Q 446.4 121.5137451171875 450.2 130.6137451171875 Q 454 139.7137451171875 454 150.1137451171875 Q 454 160.5137451171875 450.3 169.6137451171875 Q 446.6 178.7137451171875 440 185.5137451171875 Q 433.4 192.3137451171875 424.4 196.2137451171875 Q 415.4 200.1137451171875 405 200.1137451171875 Q 392.2 200.1137451171875 381.2 194.1137451171875 L 381.2 176.1137451171875 Q 391 183.3137451171875 404.4 183.3137451171875 Q 411.6 183.3137451171875 417.5 180.8137451171875 Q 423.4 178.3137451171875 427.5 173.9137451171875 Q 431.6 169.5137451171875 433.8 163.4137451171875 Q 436 157.3137451171875 436 150.1137451171875 Q 436 142.9137451171875 433.8 136.8137451171875 Q 431.6 130.7137451171875 427.6 126.31374511718751 Q 423.6 121.9137451171875 417.9 119.4137451171875 Q 412.2 116.9137451171875 405 116.9137451171875 Q 398 116.9137451171875 392.3 119.3137451171875 Q 386.6 121.7137451171875 382.5 126.1137451171875 Q 378.4 130.5137451171875 376.2 136.6137451171875 Q 374 142.7137451171875 374 150.1137451171875 L 374 243.7137451171875 L 356 243.7137451171875 Z M 502 198.1137451171875 L 484.4 198.1137451171875 L 484.4 118.9137451171875 L 468 118.9137451171875 L 476 102.1137451171875 L 502 102.1137451171875 L 502 198.1137451171875 Z M 483.6 82.1137451171875 Q 481 78.7137451171875 481 74.7137451171875 Q 481 70.7137451171875 483.6 67.41374511718749 Q 486.2 64.1137451171875 491.6 64.1137451171875 Q 497 64.1137451171875 499.6 67.41374511718749 Q 502.2 70.7137451171875 502.2 74.7137451171875 Q 502.2 78.7137451171875 499.6 82.0137451171875 Q 497 85.3137451171875 491.6 85.3137451171875 Q 486.2 85.3137451171875 483.6 82.1137451171875 Z M 519.8 118.9137451171875 L 555.5999999999999 83.1137451171875 L 555.5999999999999 102.1137451171875 L 582.5999999999999 102.1137451171875 L 582.5999999999999 118.9137451171875 L 555.5999999999999 118.9137451171875 L 555.5999999999999 160.1137451171875 Q 555.5999999999999 167.1137451171875 557.9 171.7137451171875 Q 560.1999999999999 176.3137451171875 564.5999999999999 178.2137451171875 Q 569 180.1137451171875 572.9 180.7137451171875 Q 576.8 181.3137451171875 582.5999999999999 181.3137451171875 L 582.5999999999999 198.1137451171875 Q 559.5999999999999 198.1137451171875 548.5999999999999 189.3137451171875 Q 537.5999999999999 180.5137451171875 537.5999999999999 160.1137451171875 L 537.5999999999999 118.9137451171875 L 519.8 118.9137451171875 Z M 649.5999999999999 100.1137451171875 Q 683.5999999999999 101.5137451171875 683.5999999999999 128.31374511718752 Q 683.5999999999999 161.7137451171875 639.8 161.7137451171875 L 631.5999999999999 161.7137451171875 L 631.5999999999999 146.3137451171875 L 641.1999999999999 146.3137451171875 Q 654.5999999999999 146.3137451171875 659.8 142.2137451171875 Q 664.9999999999999 138.1137451171875 664.9999999999999 128.5137451171875 Q 664.9999999999999 122.31374511718751 660.3999999999999 119.2137451171875 Q 655.8 116.1137451171875 648.5999999999999 116.1137451171875 Q 634.3999999999999 116.1137451171875 626.3 126.1137451171875 Q 618.1999999999999 136.1137451171875 618.1999999999999 150.1137451171875 Q 618.1999999999999 164.9137451171875 626.8999999999999 174.1137451171875 Q 635.5999999999999 183.3137451171875 649.5999999999999 183.3137451171875 Q 662.1999999999999 183.3137451171875 670.1999999999999 177.1137451171875 L 682.1999999999999 188.91374511718752 Q 668.3999999999999 200.1137451171875 649.5999999999999 200.1137451171875 Q 626.8 200.1137451171875 613.1999999999999 186.7137451171875 Q 599.5999999999999 173.3137451171875 599.5999999999999 152.1137451171875 Q 599.5999999999999 128.5137451171875 612.9999999999999 113.9137451171875 Q 626.3999999999999 99.3137451171875 649.5999999999999 100.1137451171875 Z M 705.5999999999999 102.1137451171875 L 740.1999999999999 102.1137451171875 Q 762.3999999999999 102.1137451171875 771.9999999999999 108.7137451171875 Q 780.5999999999999 114.5137451171875 782.8999999999999 122.6137451171875 Q 785.1999999999999 130.7137451171875 785.1999999999999 143.9137451171875 L 785.1999999999999 198.1137451171875 L 767.5999999999999 198.1137451171875 L 767.5999999999999 144.1137451171875 Q 767.5999999999999 140.5137451171875 767.3999999999999 138.0137451171875 Q 767.1999999999999 135.5137451171875 765.9999999999999 131.6137451171875 Q 764.8 127.7137451171875 762.5999999999999 125.2137451171875 Q 760.3999999999999 122.7137451171875 756.1999999999999 120.8137451171875 Q 751.9999999999999 118.9137451171875 745.9999999999999 118.9137451171875 L 723.1999999999999 118.9137451171875 L 723.1999999999999 198.1137451171875 L 705.5999999999999 198.1137451171875 L 705.5999999999999 102.1137451171875 Z" style="stroke:none;fill:#000000;stroke-miterlimit:10;fill-rule:evenodd;"/></g></svg>